<?xml version="1.0" encoding="utf-8"?>
<!-- Generator: Adobe Illustrator 20.1.0, SVG Export Plug-In . SVG Version: 6.00 Build 0)  -->
<svg version="1.1" id="Calque_1" xmlns="http://www.w3.org/2000/svg" xmlns:xlink="http://www.w3.org/1999/xlink" x="0px" y="0px"
	 viewBox="0 0 750.3 212.5" style="enable-background:new 0 0 750.3 212.5;" xml:space="preserve">
<style type="text/css">
	.st0{fill:#FFFFFF;}
</style>
<g>
	<g>
		<path class="st0" d="M149.2,40.5c7.6,0,13.9,2.5,18.9,7.5c5,5,7.5,11.3,7.5,18.9v105.8h-32.9V73.6H136v99.1h-33.1V66.9
			c0-7.6,2.5-13.9,7.5-18.9c5-5,11.3-7.5,18.9-7.5H149.2z"/>
		<path class="st0" d="M343.1,179.4v33.1h-46.2c-7.7,0-14.1-2.5-19-7.4c-4.9-4.9-7.4-11.3-7.4-19v-43h-6.7v29.7h-33.1V66.9
			c0-7.6,2.5-13.9,7.5-18.9c5-5,11.3-7.5,18.9-7.5h19.8c7.6,0,13.9,2.5,18.9,7.5c5,5,7.5,11.3,7.5,18.9v112.5H343.1z M270.4,109.9
			V73.6h-6.7v36.3H270.4z"/>
		<path class="st0" d="M343.5,40.5v34.2h-33.1V40.5H343.5z M343.5,80.3v92.5h-33.1V80.3H343.5z"/>
		<path class="st0" d="M423.1,40.5v62.8h-32.9V73.6h-6.7v99.1h-33.1V66.9c0-7.6,2.5-13.9,7.5-18.9c5-5,11.3-7.5,18.9-7.5H423.1z"/>
		<path class="st0" d="M580.7,33.4H511v138.9h-32.9V33.4h-39.8V0.3h142.3V33.4z"/>
		<path class="st0" d="M564.8,40.5c7.7,0,14.1,2.5,19,7.4c4.9,4.9,7.4,11.3,7.4,19v79.3c0,7.7-2.5,14.1-7.4,19
			c-4.9,4.9-11.3,7.4-19,7.4H545c-7.6,0-13.9-2.5-18.9-7.5c-5-5-7.5-11.3-7.5-18.9V66.9c0-7.6,2.5-13.9,7.5-18.9
			c5-5,11.3-7.5,18.9-7.5H564.8z M551.7,73.6v66.2h6.7V73.6H551.7z"/>
		<path class="st0" d="M670.8,40.5v105.8c0,7.7-2.5,14.1-7.4,19c-4.9,4.9-11.3,7.4-19,7.4h-19.8c-7.6,0-13.9-2.5-18.9-7.5
			c-5-5-7.5-11.3-7.5-18.9V40.5h33.1v99.3h6.7V40.5H670.8z"/>
		<path class="st0" d="M750.3,40.5v62.8h-32.9V73.6h-6.7v99.1h-33.1V66.9c0-7.6,2.5-13.9,7.5-18.9c5-5,11.3-7.5,18.9-7.5H750.3z"/>
	</g>
	<g>
		<path class="st0" d="M61,0c10.2,0,18.6,3.3,25.1,9.8c6.5,6.5,9.8,14.9,9.8,25.1v104.7c0,10.2-3.3,18.6-9.8,25.1
			c-6.5,6.5-14.9,9.8-25.1,9.8H34.9c-10,0-18.3-3.3-25-9.9c-6.6-6.6-9.9-14.9-9.9-25V34.9c0-10,3.3-18.3,9.9-25
			C16.5,3.3,24.9,0,34.9,0H61z M43.7,43.7v87.4h8.8V43.7H43.7z"/>
	</g>
</g>
</svg>
